<svg xmlns="http://www.w3.org/2000/svg" viewBox="0 0 50 50"><g fill-rule="evenodd" fill="currentColor" class="color000 svgShape"><path d="M50 25C50 11.193 38.807 0 25 0S0 11.193 0 25s11.193 25 25 25 25-11.193 25-25ZM4 25C4 13.402 13.402 4 25 4s21 9.402 21 21-9.402 21-21 21S4 36.598 4 25Z" fill="currentColor" class="color000 svgShape"/><path d="M33 25a8 8 0 1 0-16 0 8 8 0 0 0 16 0Zm-12 0a4 4 0 1 1 8 0 4 4 0 0 1-8 0Z" fill="currentColor" class="color000 svgShape"/><path d="M18 27a2 2 0 1 0 0-4H3a2 2 0 1 0 0 4h15zm30 0a2 2 0 1 0 0-4H33a2 2 0 1 0 0 4h15z" fill="currentColor" class="color000 svgShape"/></g></svg>