<svg xmlns="http://www.w3.org/2000/svg" viewBox="0 0 512 512"><path fill="#FF0000" d="M491.867 156.355c-12.891-30.483-31.342-57.865-54.842-81.372-23.516-23.5-50.904-41.96-81.373-54.85C324.092 6.782 290.561.008 256 .008c-34.554 0-68.083 6.773-99.645 20.125-30.483 12.89-57.865 31.351-81.373 54.85-23.499 23.507-41.959 50.889-54.85 81.372C6.782 187.917.008 221.447.008 256c0 34.56 6.773 68.091 20.125 99.652 12.89 30.469 31.351 57.857 54.85 81.357 23.507 23.516 50.889 41.967 81.373 54.857 31.562 13.344 65.091 20.125 99.645 20.125 34.561 0 68.092-6.781 99.652-20.125 30.469-12.891 57.857-31.342 81.373-54.857 23.5-23.5 41.951-50.889 54.842-81.357 13.344-31.561 20.125-65.092 20.125-99.652-.001-34.553-6.782-68.083-20.126-99.645z" class="colorED5564 svgShape"/><path fill="#fff" d="M.11 263.188c.875 32.014 7.593 63.092 20.023 92.465 12.89 30.469 31.351 57.857 54.85 81.357 23.507 23.516 50.889 41.967 81.373 54.857 31.562 13.344 65.091 20.125 99.645 20.125 34.561 0 68.092-6.781 99.652-20.125 30.469-12.891 57.857-31.342 81.373-54.857 23.5-23.5 41.951-50.889 54.842-81.357 12.438-29.373 19.156-60.451 20.031-92.465H.11z" class="colorE6E9ED svgShape"/><path fill="#434a54" d="M510.773 281.219a260.21 260.21 0 0 0 1.219-25.218c0-9.516-.516-18.953-1.531-28.289-12.719 1.961-30.984 4.516-53.998 7.054-43.688 4.82-113.904 10.57-200.463 10.57-86.552 0-156.776-5.75-200.455-10.57-23.022-2.539-41.28-5.093-53.998-7.054A259.606 259.606 0 0 0 .008 256c0 8.468.406 16.875 1.219 25.218 41.53 6.25 133.027 17.436 254.773 17.436s213.242-11.185 254.773-17.435z" class="color434A54 svgShape"/><path fill="#fff" d="M309.342 266.664c0 29.459-23.891 53.334-53.342 53.334-29.452 0-53.334-23.875-53.334-53.334 0-29.453 23.882-53.327 53.334-53.327 29.451 0 53.342 23.874 53.342 53.327z" class="colorE6E9ED svgShape"/><path fill="#434a54" d="M256 170.667c-52.936 0-95.997 43.069-95.997 95.997s43.062 95.988 95.997 95.988 95.996-43.061 95.996-95.988c0-52.928-43.06-95.997-95.996-95.997zm0 138.675c-23.522 0-42.663-19.156-42.663-42.678 0-23.523 19.14-42.663 42.663-42.663 23.531 0 42.654 19.14 42.654 42.663 0 23.522-19.123 42.678-42.654 42.678z" class="color434A54 svgShape"/><path fill="#ffffff" d="M491.867 156.355c-12.891-30.483-31.342-57.865-54.842-81.372-23.516-23.5-50.904-41.96-81.373-54.85C324.092 6.782 290.561.008 256 .008c-3.57 0-7.125.078-10.664.219 30.789 1.25 60.662 7.93 88.974 19.906 30.498 12.89 57.873 31.351 81.371 54.85 23.5 23.507 41.969 50.889 54.857 81.372 13.359 31.562 20.109 65.092 20.109 99.646 0 34.56-6.75 68.091-20.109 99.652-12.889 30.469-31.357 57.857-54.857 81.357-23.498 23.516-50.873 41.967-81.371 54.857-28.312 11.969-58.186 18.656-88.974 19.906 3.539.141 7.093.219 10.664.219 34.561 0 68.092-6.781 99.652-20.125 30.469-12.891 57.857-31.342 81.373-54.857 23.5-23.5 41.951-50.889 54.842-81.357 13.344-31.561 20.125-65.092 20.125-99.652 0-34.554-6.781-68.084-20.125-99.646z" opacity=".2" class="colorFFF svgShape"/><path d="M20.133 355.652c12.89 30.469 31.351 57.857 54.85 81.357 23.507 23.516 50.889 41.967 81.373 54.857 31.562 13.344 65.091 20.125 99.645 20.125 3.57 0 7.125-.078 10.664-.219-30.789-1.25-60.67-7.938-88.982-19.906-30.483-12.891-57.857-31.342-81.364-54.857-23.507-23.5-41.96-50.889-54.858-81.357-13.352-31.56-20.117-65.091-20.117-99.652 0-34.554 6.765-68.084 20.116-99.646 12.898-30.483 31.351-57.865 54.858-81.364 23.507-23.507 50.881-41.968 81.364-54.858C205.994 8.156 235.875 1.476 266.664.226 263.125.086 259.57.008 256 .008c-34.554 0-68.083 6.773-99.645 20.125-30.483 12.89-57.865 31.351-81.373 54.858-23.499 23.499-41.959 50.881-54.85 81.364C6.782 187.917.008 221.447.008 256c0 34.561 6.774 68.092 20.125 99.652z" opacity=".1" fill="#000000" class="color000 svgShape"/></svg>