
<svg
xmlns="http://www.w3.org/2000/svg"
  width="20"   
  height="20" 
  viewBox="0 0 50 50"
>
<svg xmlns="http://www.w3.org/2000/svg" viewBox="0 0 135 135"><circle cx="36.079" cy="94.203" r="30.737" fill="#ff1a1a" class="colorff1a1a svgShape"/><ellipse cx="36.079" cy="94.203" fill="#d60909" rx="30.737" ry="23.543" class="colord60909 svgShape"/><path fill="#ffffff" d="M5.343 94.203c0 16.978 13.761 30.737 30.737 30.737 16.975 0 30.736-13.76 30.736-30.737H5.343z" class="colorfff svgShape"/><path fill="#d8e5ea" d="M36.08 117.746c16.975 0 30.736-10.541 30.736-23.543H5.343c0 13.002 13.761 23.543 30.737 23.543z" class="colord8e5ea svgShape"/><path fill="#33363a" d="M36.08 126.44c-17.775 0-32.237-14.461-32.237-32.237 0-17.775 14.461-32.236 32.237-32.236s32.236 14.461 32.236 32.236c0 17.776-14.461 32.237-32.236 32.237zm0-61.474c-16.121 0-29.237 13.115-29.237 29.236 0 16.122 13.116 29.237 29.237 29.237s29.236-13.116 29.236-29.237c0-16.12-13.115-29.236-29.236-29.236z" class="color33363a svgShape"/><path fill="#33363a" d="M66.816 95.703H5.343a1.5 1.5 0 1 1 0-3h61.473a1.5 1.5 0 1 1 0 3z" class="color33363a svgShape"/><circle cx="36.079" cy="97.281" r="9.308" fill="#a7bbc1" class="colora7bbc1 svgShape"/><circle cx="36.079" cy="94.115" r="9.308" fill="#ffffff" class="colorfff svgShape"/><path fill="#d8e5ea" d="M29.498 100.697c-3.635-3.634-3.635-9.527 0-13.164a9.311 9.311 0 0 1 13.163 0" class="colord8e5ea svgShape"/><path fill="#33363a" d="M36.08 104.923a10.733 10.733 0 0 1-7.642-3.166 10.732 10.732 0 0 1-3.166-7.642c0-2.887 1.125-5.601 3.166-7.644 2.042-2.041 4.756-3.164 7.643-3.164s5.601 1.124 7.642 3.164a10.74 10.74 0 0 1 3.166 7.644c0 2.887-1.125 5.601-3.166 7.642a10.74 10.74 0 0 1-7.643 3.166zm0-18.615a7.759 7.759 0 0 0-5.521 2.286 7.76 7.76 0 0 0-2.287 5.522c0 2.085.812 4.046 2.287 5.52 1.475 1.475 3.436 2.287 5.521 2.287s4.046-.812 5.521-2.287c1.475-1.475 2.287-3.435 2.287-5.521s-.812-4.047-2.288-5.522a7.76 7.76 0 0 0-5.52-2.285z" class="color33363a svgShape"/><circle cx="66.816" cy="40.797" r="30.737" fill="#ff1a1a" class="colorff1a1a svgShape"/><ellipse cx="66.816" cy="40.797" fill="#d60909" rx="30.737" ry="23.542" class="colord60909 svgShape"/><path fill="#ffffff" d="M36.08 40.797c0 16.978 13.761 30.737 30.737 30.737 16.975 0 30.736-13.76 30.736-30.737H36.08z" class="colorfff svgShape"/><path fill="#d8e5ea" d="M66.816 64.339c16.975 0 30.736-10.541 30.736-23.542H36.08c0 13.001 13.761 23.542 30.736 23.542z" class="colord8e5ea svgShape"/><path fill="#33363a" d="M66.816 73.035c-17.775 0-32.237-14.461-32.237-32.237S49.041 8.56 66.816 8.56s32.236 14.461 32.236 32.237-14.46 32.238-32.236 32.238zm0-61.475c-16.121 0-29.237 13.116-29.237 29.237s13.116 29.237 29.237 29.237 29.236-13.116 29.236-29.237S82.938 11.56 66.816 11.56z" class="color33363a svgShape"/><path fill="#33363a" d="M97.553 42.297H36.08a1.5 1.5 0 1 1 0-3h61.473a1.5 1.5 0 1 1 0 3z" class="color33363a svgShape"/><circle cx="66.816" cy="43.875" r="9.309" fill="#a7bbc1" class="colora7bbc1 svgShape"/><circle cx="66.816" cy="40.71" r="9.308" fill="#ffffff" class="colorfff svgShape"/><path fill="#d8e5ea" d="M60.235 47.292a9.307 9.307 0 0 1 0-13.163 9.307 9.307 0 0 1 13.163 0" class="colord8e5ea svgShape"/><path fill="#33363a" d="M66.816 51.518a10.733 10.733 0 0 1-7.642-3.166c-2.042-2.041-3.166-4.755-3.166-7.642s1.125-5.601 3.166-7.642c2.041-2.042 4.755-3.166 7.642-3.166s5.601 1.124 7.642 3.166c2.042 2.041 3.166 4.755 3.166 7.642s-1.124 5.601-3.166 7.643a10.736 10.736 0 0 1-7.642 3.165zm0-18.616c-2.085 0-4.046.812-5.521 2.287s-2.287 3.436-2.287 5.521.812 4.046 2.287 5.521 3.436 2.287 5.521 2.287 4.046-.812 5.521-2.287c1.475-1.475 2.287-3.436 2.287-5.521s-.812-4.046-2.287-5.521a7.755 7.755 0 0 0-5.521-2.287z" class="color33363a svgShape"/><circle cx="98.921" cy="94.203" r="30.737" fill="#ff1a1a" class="colorff1a1a svgShape"/><ellipse cx="98.921" cy="94.203" fill="#d60909" rx="30.737" ry="23.543" class="colord60909 svgShape"/><path fill="#ffffff" d="M68.184 94.203c0 16.978 13.761 30.737 30.737 30.737 16.975 0 30.736-13.76 30.736-30.737H68.184z" class="colorfff svgShape"/><path fill="#d8e5ea" d="M98.921 117.746c16.975 0 30.736-10.541 30.736-23.543H68.184c0 13.002 13.761 23.543 30.737 23.543z" class="colord8e5ea svgShape"/><path fill="#33363a" d="M98.921 126.44c-17.775 0-32.237-14.461-32.237-32.237 0-17.775 14.461-32.236 32.237-32.236s32.236 14.461 32.236 32.236c0 17.776-14.461 32.237-32.236 32.237zm0-61.474c-16.121 0-29.237 13.115-29.237 29.236 0 16.122 13.116 29.237 29.237 29.237s29.236-13.116 29.236-29.237c0-16.12-13.115-29.236-29.236-29.236z" class="color33363a svgShape"/><path fill="#33363a" d="M129.657 95.703H68.184a1.5 1.5 0 1 1 0-3h61.473a1.5 1.5 0 1 1 0 3z" class="color33363a svgShape"/><circle cx="98.921" cy="97.281" r="9.308" fill="#a7bbc1" class="colora7bbc1 svgShape"/><circle cx="98.921" cy="94.115" r="9.308" fill="#ffffff" class="colorfff svgShape"/><path fill="#d8e5ea" d="M92.339 100.697c-3.635-3.634-3.635-9.527 0-13.164a9.311 9.311 0 0 1 13.163 0" class="colord8e5ea svgShape"/><path fill="#33363a" d="M98.921 104.923a10.733 10.733 0 0 1-7.642-3.166 10.732 10.732 0 0 1-3.166-7.642c0-2.887 1.125-5.601 3.166-7.644 2.042-2.041 4.756-3.164 7.643-3.164s5.601 1.124 7.642 3.164a10.74 10.74 0 0 1 3.166 7.644c0 2.887-1.125 5.601-3.166 7.642a10.739 10.739 0 0 1-7.643 3.166zm0-18.615a7.759 7.759 0 0 0-5.521 2.286 7.76 7.76 0 0 0-2.287 5.522c0 2.085.812 4.046 2.287 5.52 1.475 1.475 3.436 2.287 5.521 2.287s4.046-.812 5.521-2.287c1.475-1.475 2.287-3.435 2.287-5.521s-.812-4.047-2.288-5.522a7.76 7.76 0 0 0-5.52-2.285z" class="color33363a svgShape"/></svg>
</svg>
